# xmcd
#
# Track frame offsets:
#	150
#	13134
#	29521
#	46713
#	64127
#	79591
#	92797
#	103779
#	124306
#	137100
#	148971
#	161138
#	172290
#	186432
#	200482
#	210527
#	222953
#	233275
#	246014
#	263330
#	276810
#	288752
#
# Disc length: 4019 seconds
#
# Revision: 1
# Processed by: cddbd v1.5.2PL0 Copyright (c) Steve Scherf et al.
# Submitted via: audiograbber 1.83.01
#
DISCID=480fb116
DTITLE=RiverBottomBluegrassBand - Mountain Man
DYEAR=2007
DGENRE=Country
TTITLE0=River Bottom Bluegrass Band - Halleluyah I'm Ready
TTITLE1=RiverBottomBluegrassBand - Mountain Man
TTITLE2=RiverBottomBluegrassBand - High Bright Mountain
TTITLE3=RiverBottomBluegrassBand - In The Pines
TTITLE4=RiverBottomBluegrassBand - Ashokan Farewell
TTITLE5=RiverBottomBluegrassBand - High On A Mountain Top
TTITLE6=RiverBottomBluegrassBand - Redwood Hill
TTITLE7=RiverBottomBluegrassBand - Who Will Watch The Old Home Place
TTITLE8=RiverBottomBluegrassBand - Blackberry Blosson
TTITLE9=RiverBottomBluegrassBand - Shady Grove
TTITLE10=RiverBottomBluegrassBand - One Way Track
TTITLE11=RiverBottomBluegrassBand - OleSlow Foot
TTITLE12=RiverBottomBluegrassBand - Foggy Mountain Special
TTITLE13=RiverBottomBluegrassBand - Rocky Top
TTITLE14=RiverBottomBluegrassBand - I'm Lost An I'll Never Find The Way
TTITLE15=RiverBottomBluegrassBand - Earls Brakdown
TTITLE16=RiverBottomBluegrassBand - Fox On The Run
TTITLE17=RiverBottomBluegrassBand - Old Home Place
TTITLE18=RiverBottomBluegrassBand - Farewell Party
TTITLE19=RiverBottomBluegrassBand - Good Ole Country Raptizin
TTITLE20=RiverBottomBluegrassBand - It Is True That I Lost You
TTITLE21=RiverBottomBluegrassBand - Picture In A Tear
EXTD=
EXTT0=
EXTT1=
EXTT2=
EXTT3=
EXTT4=
EXTT5=
EXTT6=
EXTT7=
EXTT8=
EXTT9=
EXTT10=
EXTT11=
EXTT12=
EXTT13=
EXTT14=
EXTT15=
EXTT16=
EXTT17=
EXTT18=
EXTT19=
EXTT20=
EXTT21=
PLAYORDER=
